<svg width="172" height="173" fill="none" xmlns="http://www.w3.org/2000/svg"><path d="M164.02 86.914v5.04h-17.36v2.38h17.36v5.04h2.24v-12.46h-2.24zm-9.289 15.696l-10.537 5.239-.428 2.909 10.577-5.517.388-2.631zm10.344-2.013l-19.39-2.859-.347 2.355 19.39 2.858.347-2.354zm-2.269.995l-.584 3.961c-.123.831-.378 1.539-.766 2.123-.391.603-.889 1.039-1.495 1.308-.608.288-1.309.373-2.103.256-.795-.117-1.441-.401-1.941-.852-.502-.432-.853-.993-1.054-1.683-.203-.672-.243-1.423-.12-2.254l.584-3.961-2.078-.306-.584 3.961c-.185 1.255-.119 2.407.199 3.454.333 1.068.891 1.952 1.675 2.652.799.722 1.79 1.17 2.971 1.344 1.201.177 2.279.034 3.234-.429.952-.445 1.732-1.132 2.341-2.061.625-.908 1.029-1.99 1.214-3.245l.584-3.962-2.077-.306z" fill="#fff"/><path d="M161.524 113.851l-12.487-4.156c-.921-.307-1.818-.448-2.692-.424a6.237 6.237 0 00-2.443.603 6.389 6.389 0 00-2.001 1.577c-.578.673-1.026 1.488-1.344 2.444-.319.956-.448 1.877-.389 2.763.059.885.281 1.697.665 2.434.378.756.91 1.405 1.595 1.948.679.56 1.479.994 2.4 1.3l12.486 4.157.752-2.258-12.487-4.157c-1.275-.424-2.187-1.112-2.736-2.062-.55-.95-.603-2.089-.161-3.417.442-1.329 1.168-2.209 2.177-2.64 1.009-.431 2.151-.435 3.427-.01l12.486 4.156.752-2.258z" fill="#fff"/><path d="M142.569 121.777l-.183-2.291c-.958-.05-1.936.03-2.933.237a8.686 8.686 0 00-2.757 1.175 6.663 6.663 0 00-2.047 2.251 6.44 6.44 0 00-.762 2.143 6.024 6.024 0 00.022 2.233c.138.743.429 1.422.873 2.039.436.632 1.027 1.16 1.774 1.583.78.442 1.524.681 2.233.717a5.243 5.243 0 002.045-.258 6.817 6.817 0 001.785-.823 13.648 13.648 0 001.447-1.079c.902-.798 1.69-1.393 2.362-1.784.679-.367 1.283-.561 1.81-.584a2.892 2.892 0 011.523.379c.552.313.928.805 1.128 1.475.215.68.061 1.483-.463 2.409-.377.666-.824 1.153-1.342 1.46a4.549 4.549 0 01-1.675.629 8.057 8.057 0 01-1.698.1l.017 2.358a7.652 7.652 0 002.354-.179 6.503 6.503 0 002.347-1.02c.743-.48 1.377-1.183 1.902-2.109.542-.958.83-1.921.863-2.889.05-.959-.139-1.838-.566-2.638-.427-.799-1.063-1.438-1.907-1.916-.78-.441-1.521-.668-2.222-.679a5.458 5.458 0 00-2.027.397 9.486 9.486 0 00-1.743.976c-.522.391-.975.756-1.36 1.096-.596.521-1.2.983-1.815 1.386-.607.429-1.239.693-1.896.793-.657.099-1.368-.067-2.131-.499-.78-.441-1.265-1.081-1.456-1.918-.191-.838-.029-1.711.486-2.621.386-.682.877-1.209 1.473-1.579a5.884 5.884 0 012.046-.772c.759-.128 1.59-.194 2.493-.198z" fill="#fff"/><path d="M146.237 136.038l-3.197 3.896-13.42-11.014-1.51 1.84 13.42 11.013-3.198 3.896 1.732 1.421 7.904-9.631-1.731-1.421zm-20.772 14.801a2.951 2.951 0 00.213-4.192 2.952 2.952 0 00-4.192-.214 2.952 2.952 0 00-.213 4.192 2.952 2.952 0 004.192.214zm-7.487 9.125l-5.531-11.942c-.407-.881-.919-1.631-1.536-2.251a6.26 6.26 0 00-2.113-1.366 6.404 6.404 0 00-2.52-.376c-.886.04-1.787.272-2.702.696-.914.423-1.674.96-2.278 1.61a6.097 6.097 0 00-1.317 2.153 5.745 5.745 0 00-.325 2.496c.057.878.29 1.758.697 2.639l5.53 11.942 2.16-1.001-5.53-11.941c-.565-1.22-.689-2.355-.374-3.406.315-1.052 1.108-1.871 2.379-2.46 1.27-.588 2.408-.662 3.414-.223 1.006.439 1.791 1.269 2.356 2.488l5.53 11.942 2.16-1z" fill="#fff"/><path d="M99.193 151.573l1.546-1.701a11.49 11.49 0 00-2.18-1.978 8.694 8.694 0 00-2.742-1.207 6.65 6.65 0 00-3.042.047 6.435 6.435 0 00-2.085.909 6.032 6.032 0 00-1.613 1.544 4.994 4.994 0 00-.89 2.031c-.164.751-.145 1.543.058 2.377.211.871.546 1.578 1.004 2.119.462.561.991.999 1.587 1.315a6.796 6.796 0 001.821.74c.633.153 1.225.259 1.777.318 1.2.112 2.172.279 2.917.502.732.245 1.287.552 1.664.922.382.387.637.844.765 1.37.15.617.048 1.227-.305 1.831-.348.623-1.04 1.059-2.073 1.31-.744.181-1.405.187-1.984.02a4.533 4.533 0 01-1.604-.792 8.062 8.062 0 01-1.234-1.169l-1.71 1.624a7.68 7.68 0 001.742 1.595 6.486 6.486 0 002.35 1.014c.858.215 1.804.196 2.838-.055 1.07-.259 1.97-.708 2.699-1.346.733-.62 1.245-1.359 1.537-2.217.291-.858.322-1.759.093-2.702-.211-.871-.553-1.566-1.024-2.085a5.444 5.444 0 00-1.676-1.207 9.423 9.423 0 00-1.904-.604 22.45 22.45 0 00-1.73-.243 16.448 16.448 0 01-2.253-.376c-.728-.15-1.353-.43-1.875-.841s-.887-1.043-1.094-1.896c-.211-.87-.076-1.662.404-2.374.48-.712 1.228-1.191 2.244-1.438.762-.184 1.482-.186 2.16-.005a5.904 5.904 0 011.963.964 15.42 15.42 0 011.849 1.684zm-21.81 9.575a2.952 2.952 0 002.767-3.156 2.952 2.952 0 00-3.156-2.768 2.953 2.953 0 00-2.767 3.157 2.952 2.952 0 003.156 2.767zM51.89 145.469l2.029 16.339L63.1 148.19l1.661 15.241 2.585.627-2.63-21.815-9.306 13.416-2.122-16.189-12.336 18.184 2.585.627 8.352-12.812z" fill="#fff"/><path d="M43.564 153.872l10.093-16.802-2.04-1.225-10.093 16.801 2.04 1.226zm-2.007-4.096l-4.118-2.905 10.005-14.186-1.944-1.372-10.006 14.186-4.119-2.905-1.29 1.831 10.181 7.181 1.291-1.83zm-5.876-15.366l-9.708-9.294-1.55 1.618 9.709 9.294 1.549-1.618zm-15.526-.909l13.554-14.159-1.72-1.645-13.553 14.158 1.719 1.646zm9.506 9.1l13.554-14.158-1.72-1.646-13.553 14.158 1.72 1.646zm-12.547-27.267a2.952 2.952 0 004.11.851 2.953 2.953 0 00.85-4.111 2.952 2.952 0 00-4.11-.85 2.951 2.951 0 00-.85 4.11zM6.285 96.242l10.12 2.366-7.328 7.349.734 2.557 8.936-9.356 8.1-2.327-.657-2.288-8.127 2.335-12.512-3.192.734 2.556zm10.302-5.632c-1.466.16-2.809-.014-4.028-.52a7.36 7.36 0 01-3.015-2.35c-.788-1.04-1.26-2.266-1.412-3.676-.155-1.43.042-2.727.592-3.895a7.152 7.152 0 012.444-2.912c1.08-.774 2.354-1.24 3.82-1.4 1.466-.159 2.81.024 4.03.55a7.151 7.151 0 013.012 2.32c.787 1.023 1.258 2.249 1.412 3.677.153 1.41-.044 2.71-.591 3.895a7.36 7.36 0 01-2.442 2.94c-1.082.756-2.356 1.213-3.822 1.372zm.271 2.506c1.41-.153 2.702-.537 3.875-1.152a9.913 9.913 0 002.974-2.435 10.043 10.043 0 001.775-3.374c.37-1.261.48-2.597.327-4.007-.155-1.429-.548-2.71-1.177-3.843a10.045 10.045 0 00-2.457-2.917 9.548 9.548 0 00-3.424-1.713c-1.28-.368-2.624-.476-4.035-.323-1.429.155-2.72.548-3.871 1.18a9.25 9.25 0 00-2.95 2.404A9.455 9.455 0 006.12 80.31c-.39 1.245-.509 2.581-.354 4.01.153 1.41.554 2.69 1.205 3.84a9.456 9.456 0 002.456 2.917 9.598 9.598 0 003.4 1.744c1.258.352 2.602.45 4.031.295z" fill="#fff"/><path d="M7.878 73.157l13.026 1.87c.961.137 1.87.117 2.725-.063a6.265 6.265 0 002.297-1.028 6.397 6.397 0 001.688-1.907c.45-.766.746-1.647.889-2.645.143-.998.107-1.927-.11-2.788a6.095 6.095 0 00-1.087-2.277 5.744 5.744 0 00-1.915-1.633c-.768-.43-1.633-.715-2.593-.853L9.77 59.964l-.338 2.356 13.026 1.87c1.33.19 2.35.704 3.06 1.541.71.838.965 1.95.767 3.335-.2 1.386-.757 2.38-1.673 2.985-.917.604-2.04.81-3.37.62L8.216 70.8l-.338 2.356z" fill="#fff"/><path d="M22.482 58.218l11.337-3.155.97-2.775-11.429 3.42-.878 2.51zm-10.538.022l18.501 6.47.786-2.246-18.501-6.47-.786 2.246zm2.417-.549l1.322-3.78c.277-.792.661-1.439 1.153-1.94.497-.517 1.069-.851 1.715-1.001.652-.168 1.356-.12 2.114.146.758.265 1.34.666 1.745 1.203.411.52.65 1.137.716 1.853.073.697-.03 1.443-.307 2.236l-1.322 3.78 1.982.692 1.322-3.78c.42-1.197.572-2.34.458-3.428-.126-1.112-.507-2.086-1.144-2.922-.649-.86-1.537-1.486-2.664-1.88-1.146-.401-2.231-.464-3.256-.19-1.02.256-1.916.784-2.689 1.58-.785.775-1.387 1.76-1.806 2.959l-1.321 3.78 1.982.692zm14.644-19.305a2.952 2.952 0 001.136 4.041 2.952 2.952 0 004.04-1.135 2.952 2.952 0 00-1.135-4.041 2.952 2.952 0 00-4.04 1.135zm11.894-5.667l2.294-2.18c.852-.81 1.474-1.633 1.865-2.468.404-.848.557-1.676.459-2.484-.098-.807-.463-1.543-1.093-2.206-.771-.812-1.577-1.308-2.418-1.487-.853-.194-1.72-.117-2.6.23-.867.335-1.727.907-2.579 1.718l-3.653 3.472L46.676 41.52l3.856-3.665c.92-.875 1.598-1.801 2.032-2.78.435-1.006.573-2.013.413-3.02-.158-1.034-.681-2.018-1.568-2.952-.618-.65-1.273-1.095-1.967-1.337a4.197 4.197 0 00-2.134-.173c-.729.1-1.455.352-2.178.756-.724.405-1.43.934-2.12 1.59l-2.497 2.373.907.954 2.496-2.373c.46-.437.938-.775 1.432-1.013a3.55 3.55 0 011.457-.418c.502-.04.989.038 1.46.235.47.197.91.511 1.322.944.553.582.887 1.205 1.002 1.868.129.65.06 1.309-.209 1.975-.254.654-.685 1.27-1.294 1.849l-2.131 2.025-10.61-11.163 1.929-1.832c.717-.682 1.492-1.058 2.326-1.13.82-.084 1.553.212 2.196.888.424.447.676.928.755 1.445a2.8 2.8 0 01-.218 1.56c-.224.522-.573 1.008-1.047 1.458l-2.294 2.18.907.954z" fill="#fff"/><path d="M43.987 19.134l7.307 10.945c.54.807 1.16 1.47 1.865 1.986.72.507 1.487.849 2.3 1.024.828.165 1.677.16 2.547-.017.87-.177 1.723-.545 2.562-1.105.838-.56 1.506-1.207 2.002-1.942a6.12 6.12 0 00.97-2.33 5.743 5.743 0 00-.065-2.517c-.192-.86-.557-1.692-1.096-2.5l-7.307-10.945-1.98 1.322L60.4 24c.747 1.118 1.045 2.22.896 3.308-.15 1.087-.807 2.02-1.971 2.797-1.164.777-2.277 1.026-3.339.747-1.061-.279-1.965-.977-2.712-2.095l-7.306-10.945-1.98 1.322z" fill="#fff"/><path d="M63.597 24.57l-1.26 1.924c.728.626 1.55 1.163 2.465 1.609a8.686 8.686 0 002.898.76 6.656 6.656 0 002.998-.526 6.425 6.425 0 001.915-1.227 6.032 6.032 0 001.35-1.779 4.995 4.995 0 00.558-2.146c.043-.767-.101-1.546-.433-2.338-.345-.827-.787-1.472-1.325-1.934a5.248 5.248 0 00-1.774-1.049 6.782 6.782 0 00-1.916-.442 13.57 13.57 0 00-1.805-.034c-1.202.078-2.188.066-2.96-.036-.76-.127-1.357-.343-1.788-.648a2.888 2.888 0 01-.971-1.232c-.245-.586-.241-1.205.012-1.857.246-.67.86-1.21 1.84-1.62.707-.296 1.359-.407 1.956-.333a4.55 4.55 0 011.709.53c.524.285.992.606 1.404.96l1.431-1.874a7.687 7.687 0 00-1.97-1.3 6.486 6.486 0 00-2.48-.632c-.883-.076-1.814.092-2.796.502-1.016.426-1.833 1.01-2.452 1.755-.627.728-1.016 1.539-1.168 2.432-.152.893-.04 1.788.334 2.683.346.826.793 1.459 1.34 1.898a5.45 5.45 0 001.846.927c.658.17 1.316.268 1.975.296.652.01 1.234 0 1.747-.033.79-.047 1.55-.042 2.283.016.742.033 1.404.212 1.985.535.58.324 1.04.89 1.379 1.7.346.826.338 1.629-.024 2.408-.362.778-1.026 1.37-1.99 1.773-.723.303-1.434.418-2.132.346a5.898 5.898 0 01-2.09-.643 15.38 15.38 0 01-2.091-1.37z" fill="#fff"/><path d="M70.849 8.4l4.33 19.116 2.322-.526L73.17 7.874l-2.321.526zm20.738-3.131L93.715 19.7 76.763 6.463l3.001 20.36 2.355-.347-2.128-14.432 16.952 13.237-3.001-20.36-2.355.348z" fill="#fff"/><path d="M95.644 27.071l9.842.914.207-2.23-9.842-.914-.207 2.23zM97.25 9.786l9.841.913.207-2.23-9.841-.914-.207 2.23zm-.725 7.806l9.284.862.207-2.23-9.284-.862-.207 2.23zm-.379-10.158L94.334 26.95l2.37.22 1.811-19.517-2.37-.22z" fill="#fff"/><path d="M106.628 23.6l-2.174.746c.189.94.509 1.869.957 2.783a8.674 8.674 0 001.821 2.38 6.66 6.66 0 002.689 1.424 6.432 6.432 0 002.265.207 6.023 6.023 0 002.157-.575 4.992 4.992 0 001.759-1.351c.505-.579.87-1.283 1.094-2.111.235-.865.282-1.646.141-2.341a5.227 5.227 0 00-.757-1.917 6.76 6.76 0 00-1.24-1.525 13.48 13.48 0 00-1.404-1.135c-.996-.676-1.768-1.291-2.314-1.845-.523-.568-.861-1.104-1.014-1.61a2.885 2.885 0 01-.01-1.569c.166-.613.549-1.099 1.149-1.458.605-.378 1.422-.427 2.448-.149.739.2 1.322.513 1.748.938.444.43.786.919 1.024 1.467s.411 1.088.518 1.62l2.281-.6a7.677 7.677 0 00-.758-2.237 6.481 6.481 0 00-1.57-2.02c-.649-.602-1.487-1.042-2.514-1.32-1.063-.288-2.068-.329-3.014-.12-.941.189-1.746.59-2.414 1.201-.669.612-1.13 1.387-1.384 2.323-.234.865-.27 1.639-.107 2.321.182.688.477 1.31.887 1.865a9.54 9.54 0 001.378 1.447c.508.408.975.757 1.399 1.046.652.448 1.25.92 1.793 1.414.565.482.978 1.03 1.237 1.641.26.612.275 1.341.046 2.188-.235.865-.734 1.494-1.498 1.886-.764.393-1.65.452-2.659.179-.757-.205-1.388-.55-1.895-1.036a5.887 5.887 0 01-1.255-1.79 15.373 15.373 0 01-.81-2.366z" fill="#fff"/><path d="M117.06 27.95l-2.27.36c.025.96.18 1.928.465 2.906a8.677 8.677 0 001.385 2.657 6.648 6.648 0 002.404 1.866c.71.332 1.442.53 2.195.593.77.072 1.511.007 2.224-.196a4.994 4.994 0 001.965-1.028c.597-.484 1.077-1.114 1.441-1.892.379-.812.56-1.572.541-2.282a5.23 5.23 0 00-.416-2.018 6.806 6.806 0 00-.959-1.716 13.688 13.688 0 00-1.188-1.36c-.866-.837-1.52-1.575-1.963-2.215-.417-.649-.658-1.235-.722-1.76a2.89 2.89 0 01.26-1.547c.269-.575.73-.988 1.383-1.239.661-.268 1.473-.177 2.437.274.693.324 1.213.732 1.56 1.224.364.5.616 1.04.757 1.621.14.581.218 1.143.232 1.686l2.35-.2a7.698 7.698 0 00-.362-2.333 6.496 6.496 0 00-1.199-2.26c-.537-.705-1.287-1.282-2.25-1.733-.998-.466-1.981-.679-2.948-.637-.96.026-1.822.282-2.586.77-.763.488-1.351 1.17-1.762 2.05-.38.812-.548 1.568-.504 2.268.06.708.245 1.372.553 1.99a9.476 9.476 0 001.108 1.662c.431.49.83.913 1.199 1.271.565.553 1.073 1.12 1.522 1.701.475.572.787 1.182.938 1.83.15.647.04 1.368-.332 2.163-.379.811-.979 1.345-1.799 1.6-.82.256-1.704.162-2.65-.28-.711-.333-1.274-.782-1.689-1.347a5.881 5.881 0 01-.929-1.98 15.376 15.376 0 01-.391-2.47z" fill="#fff"/></svg>