<svg width="222" height="223" viewBox="0 0 222 223" fill="none" xmlns="http://www.w3.org/2000/svg">
<path d="M194.189 118.299L194.356 116.145L209.55 117.32L209.963 111.984L211.853 112.13L210.863 124.932L208.973 124.786L209.384 119.473L194.189 118.299Z" fill="white"/>
<path d="M208.709 135.183C208.362 136.564 207.9 137.652 207.321 138.447C206.754 139.262 206.067 139.799 205.259 140.058C204.452 140.318 203.521 140.315 202.465 140.051C201.581 139.829 200.884 139.481 200.376 139.007C199.868 138.534 199.5 137.996 199.271 137.394C199.055 136.812 198.915 136.216 198.854 135.607L190.26 138.302L190.873 135.858L198.75 133.552L199.579 130.246L192.712 128.525L193.237 126.43L209.858 130.597L208.709 135.183ZM206.922 134.611L207.517 132.237L201.348 130.69L200.724 133.181C200.498 134.081 200.43 134.847 200.518 135.48C200.623 136.117 200.875 136.625 201.274 137.006C201.67 137.402 202.217 137.687 202.915 137.862C203.644 138.045 204.263 138.044 204.772 137.858C205.276 137.687 205.704 137.333 206.053 136.793C206.403 136.254 206.692 135.527 206.922 134.611Z" fill="white"/>
<path d="M189.282 154.985C188.212 154.479 187.345 153.804 186.682 152.961C186.033 152.123 185.667 151.137 185.584 150.001C185.509 148.886 185.796 147.641 186.445 146.267C187.354 144.342 188.568 143.12 190.088 142.599C191.615 142.099 193.24 142.256 194.962 143.069L204.945 147.782L204.023 149.736L193.974 144.991C192.716 144.397 191.582 144.269 190.573 144.606C189.558 144.958 188.729 145.814 188.087 147.174C187.643 148.115 187.45 148.953 187.51 149.689C187.577 150.446 187.842 151.102 188.306 151.657C188.783 152.219 189.413 152.684 190.194 153.053L200.221 157.787L199.309 159.719L189.282 154.985Z" fill="white"/>
<path d="M179.413 166.732C178.582 166.133 178.021 165.421 177.727 164.598C177.447 163.783 177.422 162.888 177.654 161.91C177.876 160.946 178.353 159.958 179.083 158.946C179.458 158.427 179.844 157.947 180.243 157.504C180.632 157.074 181.012 156.698 181.384 156.374C181.769 156.06 182.14 155.805 182.498 155.61L184.172 156.818C183.627 157.135 183.022 157.576 182.357 158.142C181.683 158.721 181.079 159.38 180.545 160.12C180.049 160.807 179.723 161.45 179.567 162.048C179.412 162.646 179.418 163.184 179.587 163.661C179.756 164.138 180.067 164.54 180.521 164.868C180.975 165.196 181.428 165.375 181.88 165.405C182.332 165.435 182.861 165.304 183.467 165.011C184.076 164.741 184.835 164.292 185.742 163.664C186.393 163.226 187.006 162.869 187.58 162.593C188.158 162.339 188.717 162.18 189.256 162.116C189.796 162.052 190.33 162.092 190.857 162.236C191.375 162.393 191.907 162.668 192.452 163.061C193.191 163.595 193.685 164.237 193.932 164.988C194.192 165.748 194.227 166.562 194.034 167.43C193.833 168.31 193.418 169.185 192.791 170.055C192.238 170.82 191.661 171.469 191.06 172.002C190.458 172.534 189.853 172.976 189.245 173.326L188.14 171.7C188.694 171.37 189.249 170.971 189.803 170.503C190.349 170.048 190.841 169.516 191.282 168.906C191.703 168.322 191.97 167.775 192.082 167.264C192.194 166.753 192.165 166.288 191.994 165.868C191.836 165.458 191.556 165.108 191.154 164.818C190.687 164.481 190.228 164.297 189.776 164.267C189.324 164.237 188.816 164.353 188.251 164.617C187.686 164.88 186.989 165.285 186.161 165.831C185.272 166.433 184.452 166.886 183.699 167.191C182.949 167.519 182.232 167.652 181.546 167.591C180.85 167.543 180.139 167.256 179.413 166.732Z" fill="white"/>
<path d="M169.227 170.855L170.76 169.333L181.497 180.148L185.295 176.378L186.631 177.723L177.519 186.769L176.183 185.424L179.964 181.67L169.227 170.855Z" fill="white"/>
<path d="M161.558 191.636C162.756 190.88 163.115 189.291 162.372 188.114C161.616 186.917 160.027 186.557 158.83 187.313C157.653 188.056 157.293 189.645 158.049 190.843C158.792 192.02 160.381 192.379 161.558 191.636Z" fill="white"/>
<path d="M132.741 198.139C132.371 197.015 132.264 195.921 132.421 194.859C132.582 193.813 133.046 192.868 133.814 192.027C134.571 191.205 135.672 190.557 137.116 190.082C139.137 189.418 140.86 189.458 142.284 190.203C143.697 190.967 144.701 192.254 145.296 194.063L148.743 204.551L146.691 205.225L143.221 194.669C142.787 193.347 142.1 192.436 141.161 191.936C140.207 191.441 139.015 191.429 137.586 191.898C136.598 192.223 135.858 192.66 135.365 193.21C134.861 193.779 134.568 194.423 134.484 195.141C134.405 195.875 134.5 196.652 134.77 197.472L138.233 208.006L136.203 208.673L132.741 198.139Z" fill="white"/>
<path d="M117.347 199.018C117.213 198.003 117.345 197.106 117.743 196.328C118.143 195.565 118.778 194.932 119.647 194.43C120.501 193.931 121.547 193.599 122.784 193.436C123.419 193.353 124.034 193.304 124.629 193.29C125.209 193.278 125.744 193.296 126.234 193.345C126.727 193.409 127.167 193.504 127.555 193.631L127.824 195.677C127.22 195.498 126.484 195.361 125.616 195.266C124.732 195.173 123.838 195.186 122.934 195.305C122.093 195.415 121.402 195.62 120.86 195.917C120.318 196.214 119.932 196.588 119.7 197.038C119.469 197.488 119.39 197.991 119.463 198.546C119.537 199.101 119.717 199.553 120.005 199.903C120.293 200.252 120.752 200.547 121.381 200.787C121.995 201.044 122.843 201.288 123.922 201.517C124.687 201.69 125.367 201.891 125.962 202.12C126.543 202.366 127.042 202.663 127.459 203.012C127.876 203.36 128.214 203.776 128.471 204.258C128.712 204.743 128.877 205.318 128.964 205.984C129.084 206.889 128.955 207.688 128.579 208.383C128.204 209.094 127.636 209.678 126.873 210.133C126.094 210.591 125.173 210.89 124.11 211.03C123.174 211.153 122.306 211.179 121.506 211.107C120.705 211.035 119.969 210.898 119.297 210.696L119.722 208.776C120.342 208.952 121.013 209.082 121.734 209.164C122.439 209.249 123.164 209.242 123.91 209.144C124.624 209.05 125.205 208.868 125.654 208.599C126.102 208.33 126.421 207.99 126.608 207.578C126.798 207.182 126.861 206.738 126.796 206.246C126.721 205.675 126.539 205.215 126.251 204.865C125.963 204.516 125.529 204.226 124.95 203.996C124.371 203.765 123.599 203.536 122.633 203.309C121.585 203.075 120.692 202.79 119.954 202.451C119.201 202.131 118.612 201.7 118.186 201.159C117.744 200.62 117.464 199.907 117.347 199.018Z" fill="white"/>
<path d="M101.934 205.737C103.344 205.868 104.598 204.827 104.726 203.441C104.857 202.031 103.817 200.778 102.407 200.647C101.021 200.518 99.7671 201.559 99.6363 202.969C99.5076 204.355 100.548 205.608 101.934 205.737Z" fill="white"/>
<path d="M64.9392 201.14L75.3366 186.775L77.3756 187.558L76.4654 199.24C76.4347 199.588 76.401 199.943 76.3645 200.306C76.328 200.669 76.2898 201.015 76.2498 201.342C76.2098 201.669 76.1796 201.949 76.1591 202.181C76.1179 202.422 76.0847 202.598 76.0595 202.708C76.1146 202.61 76.2075 202.457 76.3383 202.25C76.4485 202.052 76.5982 201.818 76.7876 201.548C76.9769 201.278 77.1823 200.989 77.4038 200.679C77.6046 200.379 77.8233 200.078 78.0597 199.774L85.0834 190.516L87.1224 191.299L85.217 208.922L83.1108 208.114L84.3732 197.39C84.4154 197.012 84.4651 196.637 84.5223 196.265C84.5737 195.908 84.6326 195.553 84.699 195.202C84.7447 194.859 84.8025 194.53 84.8724 194.214C84.9422 193.898 85.0092 193.59 85.0733 193.289C84.9138 193.57 84.7515 193.859 84.5863 194.156C84.4061 194.447 84.2157 194.742 84.0148 195.042C83.8083 195.357 83.5943 195.669 83.3728 195.978C83.1513 196.287 82.9327 196.589 82.7169 196.883L76.1872 205.457L74.1035 204.657L74.9005 193.806C74.9278 193.422 74.9654 193.034 75.0134 192.641C75.0556 192.263 75.1025 191.896 75.1539 191.538C75.2053 191.181 75.2689 190.837 75.3444 190.506C75.3994 190.184 75.4531 189.888 75.5058 189.617C75.3176 189.973 75.1088 190.338 74.8794 190.713C74.6441 191.103 74.3882 191.501 74.1117 191.909C73.8351 192.317 73.5482 192.73 73.251 193.147L67.0454 201.948L64.9392 201.14Z" fill="white"/>
<path d="M64.7505 180.584L70.011 183.85L69.3527 184.91L67.3995 184.234L60.1707 195.877L61.6302 197.348L60.9719 198.408L55.7114 195.142L56.3697 194.082L58.3356 194.737L65.5644 183.095L64.0922 181.644L64.7505 180.584Z" fill="white"/>
<path d="M57.3816 175.019L59.0513 176.389L49.383 188.17L53.5201 191.565L52.3173 193.03L42.3919 184.885L43.5948 183.419L47.7133 186.799L57.3816 175.019Z" fill="white"/>
<path d="M42.818 159.65L44.2064 161.304L38.0843 166.442L43.7307 173.171L49.8528 168.033L51.2413 169.688L38.1146 180.703L36.7261 179.048L42.2783 174.389L36.6319 167.66L31.0797 172.32L29.6913 170.665L42.818 159.65Z" fill="white"/>
<path d="M25.459 152.744C26.0825 154.016 27.6241 154.543 28.8739 153.93C30.1452 153.306 30.6722 151.765 30.0487 150.493C29.4357 149.244 27.8942 148.717 26.6228 149.34C25.3731 149.953 24.846 151.495 25.459 152.744Z" fill="white"/>
<path d="M21.2701 132.336L12.0492 129.914L11.5175 127.648L23.0329 130.813L29.5051 129.295L29.9985 131.398L23.6197 132.894L14.6201 140.873L14.0829 138.583L21.2701 132.336Z" fill="white"/>
<path d="M18.6774 106.838C20.0044 106.786 21.218 106.908 22.3182 107.201C23.4023 107.496 24.3491 107.964 25.1584 108.605C25.9672 109.23 26.5985 110.03 27.0525 111.006C27.5058 111.965 27.7575 113.092 27.8075 114.387C27.8594 115.73 27.6966 116.905 27.3192 117.912C26.9258 118.92 26.358 119.767 25.6159 120.452C24.8578 121.138 23.9413 121.662 22.8665 122.023C21.7916 122.385 20.5907 122.592 19.2637 122.643C17.505 122.711 15.959 122.482 14.6258 121.957C13.2925 121.432 12.2356 120.6 11.4551 119.462C10.674 118.307 10.2489 116.834 10.1797 115.044C10.1137 113.333 10.4258 111.88 11.1162 110.684C11.7906 109.489 12.7799 108.571 14.0841 107.928C15.3716 107.27 16.9028 106.906 18.6774 106.838ZM19.1997 120.364C20.6386 120.308 21.87 120.06 22.8938 119.621C23.9176 119.181 24.6932 118.534 25.2207 117.681C25.7476 116.812 25.9863 115.738 25.9369 114.459C25.8869 113.164 25.5664 112.12 24.9753 111.326C24.3836 110.516 23.5604 109.932 22.5058 109.572C21.4511 109.212 20.2043 109.06 18.7654 109.116C16.607 109.199 14.9375 109.712 13.757 110.654C12.5605 111.597 11.9996 113.036 12.0743 114.971C12.1243 116.266 12.4455 117.326 13.0378 118.152C13.6135 118.962 14.4286 119.547 15.4833 119.907C16.522 120.267 17.7608 120.419 19.1997 120.364Z" fill="white"/>
<path d="M23.9697 88.8954C25.1352 89.1039 26.1482 89.5289 27.0087 90.1705C27.8534 90.8092 28.4641 91.6661 28.8407 92.7412C29.2043 93.7977 29.2523 95.0741 28.9847 96.5704C28.61 98.6651 27.757 100.162 26.4258 101.062C25.0817 101.943 23.4725 102.216 21.5982 101.881L10.7307 99.9369L11.111 97.8106L22.0494 99.7672C23.4197 100.012 24.5476 99.8402 25.4332 99.2509C26.3216 98.6459 26.8982 97.6031 27.1631 96.1226C27.3462 95.0989 27.313 94.2396 27.0634 93.5448C26.8009 92.8314 26.3735 92.2674 25.7813 91.8526C25.1733 91.4351 24.4441 91.1502 23.5936 90.9981L12.6788 89.0457L13.0549 86.9431L23.9697 88.8954Z" fill="white"/>
<path d="M16.9742 75.0599C17.4894 73.7323 18.0836 72.7101 18.7566 71.993C19.4205 71.2552 20.1692 70.8078 21.0025 70.6506C21.8358 70.4935 22.7596 70.6118 23.7739 71.0054C24.6241 71.3354 25.2718 71.767 25.717 72.3002C26.1623 72.8334 26.4609 73.4127 26.6129 74.0381C26.7558 74.6428 26.82 75.2512 26.8055 75.8635L35.6672 74.2569L34.7554 76.6062L26.6528 77.9152L25.4198 81.0923L32.0201 83.654L31.2386 85.6676L15.2635 79.4675L16.9742 75.0599ZM18.676 75.8491L17.7902 78.1312L23.7193 80.4324L24.6485 78.0384C24.9843 77.1732 25.1474 76.4213 25.1378 75.7826C25.1134 75.1381 24.9266 74.6022 24.5775 74.1749C24.2343 73.7328 23.727 73.3814 23.0558 73.1209C22.3547 72.8488 21.7404 72.7734 21.2128 72.8948C20.6909 73.0012 20.223 73.3001 19.8091 73.7917C19.3952 74.2832 19.0175 74.969 18.676 75.8491Z" fill="white"/>
<path d="M32.104 57.7709C31.3091 58.9428 31.6159 60.5428 32.7679 61.3242C33.9398 62.119 35.5398 61.8123 36.3346 60.6404C37.116 59.4884 36.8092 57.8883 35.6374 57.0935C34.4854 56.3121 32.8853 56.6189 32.104 57.7709Z" fill="white"/>
<path d="M42.3795 37.3814C43.4294 36.4194 44.4 35.7143 45.2916 35.2663C46.1949 34.8074 47.0343 34.6458 47.8098 34.7816C48.597 34.9065 49.342 35.3524 50.0446 36.1191C50.4986 36.6146 50.8096 37.1434 50.9776 37.7056C51.1466 38.2453 51.1671 38.8124 51.0393 39.407C50.9124 39.979 50.6327 40.55 50.2001 41.12L50.2812 41.2085C50.8877 40.8046 51.506 40.5202 52.136 40.3551C52.7779 40.1793 53.4118 40.1843 54.0379 40.3702C54.6639 40.556 55.2796 40.9793 55.885 41.6398C56.5876 42.4066 57.0106 43.2234 57.154 44.0903C57.2865 44.9455 57.1522 45.8173 56.7511 46.7057C56.3509 47.5716 55.6967 48.4207 54.7884 49.253L50.3472 53.3229L38.7699 40.6892L42.3795 37.3814ZM47.6273 42.4686C48.7125 41.4741 49.2989 40.6221 49.3865 39.9124C49.4633 39.191 49.1882 38.4882 48.5612 37.804C47.9234 37.1081 47.2217 36.8396 46.456 36.9988C45.6913 37.1353 44.7722 37.6953 43.6988 38.679L41.6109 40.5924L45.2916 44.609L47.6273 42.4686ZM46.5077 45.936L50.7073 50.5188L53.2553 48.1839C54.3759 47.157 54.9545 46.2253 54.991 45.3889C55.0275 44.5525 54.7214 43.7804 54.0728 43.0726C53.6621 42.6243 53.2051 42.327 52.7019 42.1804C52.2105 42.0231 51.6536 42.0667 51.0315 42.3114C50.4102 42.5334 49.7104 43.0012 48.9318 43.7146L46.5077 45.936Z" fill="white"/>
<path d="M70.0209 31.1124C70.6343 32.1251 70.9844 33.1663 71.0712 34.2361C71.1497 35.2922 70.9098 36.3167 70.3515 37.3097C69.7985 38.2806 68.872 39.1599 67.5719 39.9474C65.7518 41.0499 64.0643 41.3986 62.5095 40.9935C60.9601 40.5665 59.6922 39.5387 58.7057 37.9101L52.986 28.4674L54.8335 27.3483L60.5905 36.8526C61.3117 38.0433 62.186 38.7763 63.2134 39.0519C64.2545 39.3192 65.4183 39.0632 66.7047 38.284C67.5942 37.7452 68.2174 37.1526 68.5741 36.5063C68.9363 35.838 69.0774 35.1445 68.9976 34.4259C68.9094 33.6936 68.6415 32.958 68.1939 32.219L62.4493 22.7352L64.2762 21.6285L70.0209 31.1124Z" fill="white"/>
<path d="M84.5938 26.8023C84.9535 27.761 85.0277 28.6645 84.8162 29.5129C84.5992 30.3463 84.1237 31.1057 83.3897 31.7913C82.6708 32.4712 81.727 33.0304 80.5586 33.4688C79.9594 33.6936 79.3714 33.8801 78.7947 34.0281C78.2329 34.1706 77.7076 34.2737 77.2189 34.3374C76.7245 34.3862 76.2741 34.3929 75.8678 34.3574L75.1427 32.4249C75.7719 32.4622 76.52 32.4293 77.387 32.3262C78.269 32.2174 79.137 32.0028 79.9908 31.6824C80.7848 31.3845 81.412 31.0295 81.8726 30.6174C82.3332 30.2053 82.6253 29.754 82.7488 29.2633C82.8723 28.7726 82.8357 28.2652 82.6389 27.7409C82.4422 27.2166 82.164 26.8168 81.8044 26.5416C81.4448 26.2664 80.9317 26.083 80.265 25.9913C79.6077 25.8791 78.7275 25.8334 77.6245 25.8542C76.8399 25.8581 76.132 25.8161 75.5009 25.7282C74.8792 25.6197 74.3257 25.4429 73.8407 25.1976C73.3556 24.9524 72.9333 24.6238 72.5736 24.2119C72.229 23.7944 71.9386 23.271 71.7025 22.6419C71.3822 21.788 71.3267 20.98 71.5363 20.2178C71.7403 19.4406 72.1625 18.7439 72.8028 18.1276C73.4581 17.5058 74.2876 17.0065 75.2913 16.6299C76.1751 16.2983 77.0149 16.0772 77.8108 15.9665C78.6066 15.8559 79.3548 15.823 80.0551 15.8678L80.0752 17.8341C79.431 17.8024 78.7484 17.8278 78.0275 17.9103C77.3215 17.9872 76.6165 18.1578 75.9124 18.422C75.2383 18.6749 74.7131 18.9831 74.3367 19.3464C73.9604 19.7098 73.7273 20.1134 73.6375 20.5572C73.5421 20.9861 73.5815 21.4327 73.7558 21.8971C73.9581 22.4364 74.2391 22.8436 74.5987 23.1188C74.9583 23.3941 75.4462 23.5784 76.0623 23.6719C76.6784 23.7654 77.4827 23.814 78.4752 23.8175C79.5483 23.8079 80.4827 23.8845 81.2787 24.0473C82.0839 24.1895 82.7553 24.4759 83.2929 24.9065C83.8454 25.3314 84.279 25.9634 84.5938 26.8023Z" fill="white"/>
<path d="M98.3898 23.6823C98.5893 24.6867 98.516 25.5903 98.1698 26.3932C97.8205 27.1803 97.2281 27.8526 96.3927 28.4101C95.573 28.9645 94.5512 29.3632 93.3271 29.6064C92.6993 29.7311 92.0889 29.8198 91.4958 29.8723C90.9184 29.9218 90.3833 29.9384 89.8907 29.9221C89.395 29.8901 88.9495 29.8236 88.5542 29.7227L88.152 27.6982C88.7669 27.8371 89.5105 27.9259 90.3827 27.9647C91.2707 28.0003 92.1619 27.9293 93.0565 27.7516C93.8882 27.5863 94.5647 27.3377 95.086 27.0058C95.6073 26.6739 95.9687 26.2758 96.1701 25.8117C96.3715 25.3475 96.4177 24.8408 96.3086 24.2915C96.1995 23.7423 95.9898 23.3027 95.6796 22.9728C95.3693 22.643 94.8927 22.3788 94.2497 22.1803C93.6193 21.963 92.7582 21.7751 91.6664 21.6169C90.8915 21.4935 90.1998 21.3373 89.5913 21.1482C88.9954 20.9404 88.478 20.6761 88.0391 20.3555C87.6002 20.0349 87.2367 19.6422 86.9486 19.1774C86.6762 18.7095 86.4745 18.146 86.3436 17.4869C86.1659 16.5924 86.2422 15.786 86.5726 15.0679C86.8999 14.3341 87.4294 13.715 88.1612 13.2107C88.9086 12.7034 89.8081 12.3452 90.8596 12.1363C91.7855 11.9524 92.65 11.8703 93.4533 11.8902C94.2566 11.9101 95.0001 11.9989 95.684 12.1566L95.385 14.1002C94.7544 13.9644 94.0768 13.8788 93.352 13.8434C92.6429 13.8048 91.9195 13.8588 91.1819 14.0054C90.4757 14.1457 89.9075 14.3646 89.4772 14.6621C89.047 14.9597 88.7515 15.3201 88.591 15.7435C88.4273 16.1513 88.3938 16.5984 88.4904 17.0849C88.6026 17.6498 88.8139 18.0972 89.1241 18.4271C89.4343 18.757 89.8858 19.018 90.4787 19.2102C91.0715 19.4023 91.8573 19.5806 92.8361 19.745C93.8965 19.9096 94.8062 20.1367 95.5651 20.4263C96.3367 20.6972 96.9528 21.0886 97.4134 21.6007C97.8897 22.1096 98.2152 22.8035 98.3898 23.6823Z" fill="white"/>
<path d="M108.168 27.5124L101.988 27.8944L101.911 26.6487L103.895 26.0692L103.049 12.3913L101.007 12.0366L100.93 10.791L107.111 10.409L107.188 11.6546L105.205 12.2581L106.05 25.936L108.091 26.2667L108.168 27.5124Z" fill="white"/>
<path d="M126.021 28.6077L123.515 28.3458L115.876 13.2383L115.78 13.2283C115.766 13.5164 115.749 13.8363 115.728 14.1881C115.723 14.5415 115.707 14.9259 115.68 15.3413C115.654 15.7408 115.627 16.1562 115.598 16.5875C115.569 17.0189 115.532 17.4494 115.487 17.879L114.492 27.4032L112.511 27.1962L114.292 10.153L116.774 10.4123L124.395 25.4697L124.49 25.4796C124.494 25.287 124.506 25.0228 124.525 24.6869C124.545 24.3352 124.569 23.9516 124.597 23.5362C124.626 23.1049 124.655 22.6656 124.686 22.2183C124.717 21.7711 124.752 21.3565 124.792 20.9746L125.797 11.3549L127.802 11.5644L126.021 28.6077Z" fill="white"/>
<path d="M139.729 32.4351L130.566 29.6516L135.547 13.2555L144.71 16.039L144.158 17.8532L137.063 15.6975L135.507 20.8184L142.189 22.8485L141.645 24.6397L134.963 22.6096L133.184 28.4653L140.28 30.621L139.729 32.4351Z" fill="white"/>
<path d="M154.378 34.1658C153.923 35.0835 153.314 35.7549 152.55 36.1801C151.793 36.591 150.914 36.7626 149.912 36.695C148.924 36.6345 147.871 36.3274 146.753 35.7737C146.179 35.4898 145.641 35.1878 145.139 34.8678C144.651 34.5549 144.217 34.2418 143.837 33.9284C143.463 33.6007 143.151 33.2764 142.899 32.9554L143.815 31.1057C144.217 31.5906 144.753 32.1145 145.42 32.6771C146.102 33.2468 146.852 33.734 147.669 34.1387C148.429 34.5149 149.117 34.7304 149.733 34.7852C150.348 34.84 150.877 34.7449 151.32 34.4999C151.763 34.2548 152.108 33.8814 152.357 33.3795C152.605 32.8777 152.707 32.4014 152.662 31.9508C152.618 31.5002 152.401 31.0002 152.012 30.4507C151.645 29.894 151.077 29.2201 150.308 28.4289C149.77 27.8586 149.317 27.313 148.95 26.7921C148.604 26.2639 148.355 25.739 148.203 25.2172C148.05 24.6955 148.002 24.1626 148.057 23.6186C148.126 23.0816 148.31 22.5121 148.608 21.9098C149.013 21.0925 149.565 20.5 150.265 20.1323C150.972 19.7502 151.769 19.5825 152.656 19.6291C153.558 19.6828 154.49 19.9474 155.45 20.423C156.296 20.8419 157.031 21.3041 157.656 21.8096C158.281 22.3152 158.816 22.839 159.261 23.3811L157.839 24.7391C157.422 24.247 156.937 23.7659 156.385 23.2958C155.846 22.8329 155.24 22.4346 154.566 22.1009C153.921 21.7815 153.337 21.6085 152.814 21.5819C152.292 21.5554 151.838 21.6609 151.453 21.8986C151.074 22.1219 150.775 22.4558 150.555 22.9003C150.299 23.4165 150.194 23.8999 150.239 24.3505C150.283 24.8012 150.482 25.2834 150.835 25.7972C151.187 26.311 151.701 26.9315 152.377 27.6586C153.117 28.4357 153.7 29.1704 154.124 29.8628C154.571 30.5479 154.82 31.2339 154.873 31.9206C154.94 32.6144 154.775 33.3628 154.378 34.1658Z" fill="white"/>
<path d="M166.143 42.1402C165.546 42.9727 164.837 43.5371 164.015 43.8336C163.201 44.1171 162.306 44.1448 161.328 43.9165C160.363 43.6976 159.373 43.2248 158.358 42.4981C157.838 42.1254 157.356 41.7407 156.912 41.3439C156.481 40.9564 156.103 40.5774 155.778 40.2069C155.462 39.8233 155.206 39.4528 155.009 39.0954L156.211 37.4175C156.53 37.961 156.974 38.5643 157.542 39.2272C158.124 39.8994 158.785 40.501 159.526 41.0321C160.216 41.5259 160.86 41.8495 161.459 42.0028C162.057 42.1561 162.595 42.1475 163.071 41.9771C163.548 41.8066 163.949 41.4937 164.275 41.0385C164.601 40.5832 164.778 40.1296 164.807 39.6777C164.835 39.2257 164.702 38.6973 164.407 38.0925C164.135 37.4839 163.683 36.7272 163.052 35.8224C162.612 35.1727 162.253 34.5612 161.974 33.988C161.718 33.4111 161.557 32.8529 161.491 32.3134C161.425 31.7739 161.463 31.2401 161.605 30.7121C161.76 30.1934 162.033 29.6609 162.424 29.1146C162.955 28.3731 163.596 27.8774 164.346 27.6273C165.105 27.3642 165.919 27.3271 166.787 27.5162C167.669 27.7145 168.545 28.1258 169.416 28.75C170.184 29.2998 170.835 29.8744 171.37 30.474C171.905 31.0737 172.349 31.6769 172.701 32.2837L171.079 33.3947C170.746 32.8419 170.345 32.2889 169.876 31.7359C169.419 31.1922 168.885 30.7014 168.273 30.2635C167.688 29.8442 167.14 29.5793 166.628 29.4689C166.117 29.3585 165.652 29.3895 165.233 29.5619C164.824 29.7213 164.475 30.0026 164.186 30.4059C163.85 30.8741 163.669 31.3342 163.64 31.7862C163.612 32.2381 163.73 32.746 163.995 33.3099C164.26 33.8739 164.668 34.5691 165.217 35.3957C165.822 36.2818 166.279 37.1008 166.586 37.8526C166.917 38.6008 167.052 39.318 166.994 40.0042C166.948 40.6998 166.664 41.4118 166.143 42.1402Z" fill="white"/>
</svg>
