<svg width="222" height="223" fill="none" xmlns="http://www.w3.org/2000/svg"><path d="M194.189 118.299l.167-2.154 15.194 1.175.413-5.336 1.89.146-.99 12.802-1.89-.146.411-5.313-15.195-1.174zm14.52 16.884c-.347 1.381-.809 2.469-1.388 3.264-.567.815-1.254 1.352-2.062 1.611-.807.26-1.738.257-2.794-.007-.884-.222-1.581-.57-2.089-1.044a4.26 4.26 0 01-1.105-1.613 7.175 7.175 0 01-.417-1.787l-8.594 2.695.613-2.444 7.877-2.306.829-3.306-6.867-1.721.525-2.095 16.621 4.167-1.149 4.586zm-1.787-.572l.595-2.374-6.169-1.547-.624 2.491c-.226.9-.294 1.666-.206 2.299.105.637.357 1.145.756 1.526.396.396.943.681 1.641.856.729.183 1.348.182 1.857-.004.504-.171.932-.525 1.281-1.065.35-.539.639-1.266.869-2.182zm-17.64 20.374c-1.07-.506-1.937-1.181-2.6-2.024-.649-.838-1.015-1.824-1.098-2.96-.075-1.115.212-2.36.861-3.734.909-1.925 2.123-3.147 3.643-3.668 1.527-.5 3.152-.343 4.874.47l9.983 4.713-.922 1.954-10.049-4.745c-1.258-.594-2.392-.722-3.401-.385-1.015.352-1.844 1.208-2.486 2.568-.444.941-.637 1.779-.577 2.515.067.757.332 1.413.796 1.968.477.562 1.107 1.027 1.888 1.396l10.027 4.734-.912 1.932-10.027-4.734zm-9.869 11.747c-.831-.599-1.392-1.311-1.686-2.134-.28-.815-.305-1.71-.073-2.688.222-.964.699-1.952 1.429-2.964.375-.519.761-.999 1.16-1.442.389-.43.769-.806 1.141-1.13a7.337 7.337 0 011.114-.764l1.674 1.208c-.545.317-1.15.758-1.815 1.324a11.354 11.354 0 00-1.812 1.978c-.496.687-.822 1.33-.978 1.928-.155.598-.149 1.136.02 1.613.169.477.48.879.934 1.207.454.328.907.507 1.359.537.452.03.981-.101 1.587-.394.609-.27 1.368-.719 2.275-1.347a14.883 14.883 0 011.838-1.071 5.906 5.906 0 011.676-.477 4.162 4.162 0 011.601.12c.518.157 1.05.432 1.595.825.739.534 1.233 1.176 1.48 1.927.26.76.295 1.574.102 2.442-.201.88-.616 1.755-1.243 2.625a11.922 11.922 0 01-1.731 1.947c-.602.532-1.207.974-1.815 1.324l-1.105-1.626c.554-.33 1.109-.729 1.663-1.197a8.693 8.693 0 001.479-1.597c.421-.584.688-1.131.8-1.642.112-.511.083-.976-.088-1.396-.158-.41-.438-.76-.84-1.05-.467-.337-.926-.521-1.378-.551-.452-.03-.96.086-1.525.35-.565.263-1.262.668-2.09 1.214-.889.602-1.709 1.055-2.462 1.36-.75.328-1.467.461-2.153.4-.696-.048-1.407-.335-2.133-.859zm-10.186 4.123l1.533-1.522 10.737 10.815 3.798-3.77 1.336 1.345-9.112 9.046-1.336-1.345 3.781-3.754-10.737-10.815zm-7.669 20.781c1.198-.756 1.557-2.345.814-3.522a2.57 2.57 0 00-3.542-.801c-1.177.743-1.537 2.332-.781 3.53a2.56 2.56 0 003.509.793zm-28.817 6.503c-.37-1.124-.477-2.218-.32-3.28.161-1.046.625-1.991 1.393-2.832.757-.822 1.858-1.47 3.302-1.945 2.021-.664 3.744-.624 5.168.121 1.413.764 2.417 2.051 3.012 3.86l3.447 10.488-2.052.674-3.47-10.556c-.434-1.322-1.121-2.233-2.06-2.733-.954-.495-2.146-.507-3.575-.038-.988.325-1.728.762-2.221 1.312a3.465 3.465 0 00-.881 1.931c-.079.734.016 1.511.286 2.331l3.463 10.534-2.03.667-3.462-10.534zm-15.394.879c-.134-1.015-.002-1.912.396-2.69.4-.763 1.035-1.396 1.904-1.898.854-.499 1.9-.831 3.137-.994.635-.083 1.25-.132 1.845-.146.58-.012 1.115.006 1.605.055.493.064.933.159 1.321.286l.269 2.046c-.604-.179-1.34-.316-2.208-.411a11.368 11.368 0 00-2.682.039c-.841.11-1.532.315-2.074.612-.542.297-.928.671-1.16 1.121-.231.45-.31.953-.237 1.508.074.555.254 1.007.542 1.357.288.349.747.644 1.376.884.614.257 1.462.501 2.541.73.765.173 1.445.374 2.04.603.581.246 1.08.543 1.497.892.417.348.755.764 1.012 1.246.241.485.406 1.06.493 1.726.12.905-.009 1.704-.385 2.399-.375.711-.943 1.295-1.706 1.75-.779.458-1.7.757-2.763.897-.936.123-1.804.149-2.604.077a11.13 11.13 0 01-2.209-.411l.425-1.92c.62.176 1.291.306 2.012.388.705.085 1.43.078 2.176-.02.714-.094 1.295-.276 1.744-.545.448-.269.767-.609.954-1.021.19-.396.253-.84.188-1.332-.075-.571-.257-1.031-.545-1.381-.288-.349-.722-.639-1.301-.869-.579-.231-1.351-.46-2.317-.687-1.048-.234-1.941-.519-2.679-.858-.753-.32-1.342-.751-1.768-1.292-.442-.539-.722-1.252-.839-2.141zm-15.413 6.719c1.41.131 2.664-.91 2.792-2.296a2.57 2.57 0 00-2.319-2.794c-1.386-.129-2.64.912-2.77 2.322a2.56 2.56 0 002.297 2.768zM64.94 201.14l10.397-14.365 2.039.783-.91 11.682c-.031.348-.065.703-.101 1.066-.037.363-.075.709-.115 1.036-.04.327-.07.607-.09.839-.042.241-.075.417-.1.527.055-.098.147-.251.278-.458.11-.198.26-.432.45-.702.189-.27.394-.559.616-.869.2-.3.42-.601.656-.905l7.023-9.258 2.04.783-1.906 17.623-2.106-.808 1.262-10.724c.042-.378.092-.753.15-1.125.05-.357.11-.712.176-1.063.046-.343.103-.672.173-.988.07-.316.137-.624.201-.925-.16.281-.322.57-.487.867a29.6 29.6 0 01-.571.886c-.207.315-.42.627-.642.936-.222.309-.44.611-.656.905l-6.53 8.574-2.084-.8.797-10.851c.028-.384.065-.772.113-1.165.043-.378.09-.745.14-1.103.052-.357.116-.701.191-1.032.055-.322.11-.618.162-.889a26.98 26.98 0 01-1.394 2.292 67.19 67.19 0 01-.861 1.238l-6.206 8.801-2.106-.808zm-.19-20.556l5.261 3.266-.658 1.06-1.953-.676-7.23 11.643 1.46 1.471-.658 1.06-5.26-3.266.658-1.06 1.966.655 7.228-11.642-1.472-1.451.659-1.06zm-7.368-5.565l1.67 1.37-9.669 11.781 4.137 3.395-1.203 1.465-9.925-8.145 1.203-1.466 4.118 3.38 9.669-11.78zM42.818 159.65l1.388 1.654-6.122 5.138 5.647 6.729 6.122-5.138 1.388 1.655-13.126 11.015-1.389-1.655 5.552-4.659-5.646-6.729-5.552 4.66-1.389-1.655 13.127-11.015zm-17.359-6.906c.623 1.272 2.165 1.799 3.415 1.186a2.572 2.572 0 001.175-3.437c-.613-1.249-2.155-1.776-3.426-1.153a2.56 2.56 0 00-1.164 3.404zm-4.189-20.408l-9.22-2.422-.533-2.266 11.516 3.165 6.472-1.518.494 2.103-6.38 1.496-8.999 7.979-.537-2.29 7.187-6.247zm-2.593-25.498c1.327-.052 2.541.07 3.641.363 1.084.295 2.031.763 2.84 1.404a6.378 6.378 0 011.894 2.401c.454.959.706 2.086.756 3.381.051 1.343-.111 2.518-.489 3.525-.393 1.008-.961 1.855-1.703 2.54-.758.686-1.675 1.21-2.75 1.571-1.074.362-2.275.569-3.602.62-1.759.068-3.305-.161-4.638-.686-1.333-.525-2.39-1.357-3.17-2.495-.782-1.155-1.207-2.628-1.276-4.418-.066-1.711.246-3.164.936-4.36.675-1.195 1.664-2.113 2.968-2.756 1.288-.658 2.819-1.022 4.593-1.09zm.523 13.526c1.439-.056 2.67-.304 3.694-.743 1.024-.44 1.8-1.087 2.327-1.94.527-.869.765-1.943.716-3.222-.05-1.295-.37-2.339-.962-3.133-.591-.81-1.415-1.394-2.47-1.754-1.054-.36-2.3-.512-3.74-.456-2.158.083-3.828.596-5.008 1.538-1.197.943-1.757 2.382-1.683 4.317.05 1.295.371 2.355.964 3.181.575.81 1.39 1.395 2.445 1.755 1.039.36 2.278.512 3.717.457zm4.77-31.469c1.165.209 2.178.634 3.039 1.276.844.638 1.455 1.495 1.832 2.57.363 1.057.411 2.333.144 3.83-.375 2.094-1.228 3.591-2.56 4.491-1.343.881-2.953 1.154-4.827.819l-10.867-1.944.38-2.126 10.938 1.956c1.37.245 2.499.073 3.384-.516.889-.605 1.465-1.648 1.73-3.128.183-1.024.15-1.883-.1-2.578a3.473 3.473 0 00-1.282-1.692c-.608-.418-1.337-.703-2.187-.855l-10.915-1.952.376-2.103 10.915 1.952zM16.974 75.06c.515-1.328 1.11-2.35 1.783-3.067.663-.738 1.412-1.185 2.245-1.342.834-.157 1.758-.04 2.772.354.85.33 1.498.762 1.943 1.295.445.533.744 1.113.896 1.738.143.605.207 1.213.192 1.826l8.862-1.607-.912 2.35-8.102 1.308-1.233 3.177 6.6 2.562-.781 2.014-15.976-6.2 1.711-4.408zm1.702.79l-.886 2.281 5.93 2.301.928-2.394c.336-.865.5-1.617.49-2.255-.025-.645-.211-1.18-.56-1.608-.344-.442-.851-.794-1.522-1.054-.701-.272-1.316-.348-1.843-.226-.522.106-.99.405-1.404.897-.414.491-.792 1.177-1.133 2.057zm13.428-18.08c-.795 1.173-.488 2.773.664 3.554a2.57 2.57 0 003.567-.684c.781-1.152.474-2.752-.698-3.547a2.56 2.56 0 00-3.533.678zM42.38 37.381c1.05-.962 2.02-1.667 2.912-2.115.903-.459 1.742-.62 2.518-.484.787.125 1.532.57 2.235 1.337.454.496.765 1.024.933 1.587.169.54.19 1.106.061 1.701-.127.572-.406 1.143-.839 1.713l.081.089a6.165 6.165 0 011.855-.854 3.4 3.4 0 011.902.015c.626.186 1.242.61 1.847 1.27.703.767 1.126 1.583 1.269 2.45.132.855-.002 1.727-.403 2.616-.4.866-1.054 1.715-1.963 2.547l-4.44 4.07L38.77 40.689l3.61-3.308zm5.247 5.088c1.085-.995 1.672-1.847 1.76-2.557.076-.721-.199-1.424-.826-2.108-.638-.696-1.34-.964-2.105-.805-.765.136-1.684.696-2.757 1.68l-2.088 1.913 3.68 4.017 2.336-2.14zm-1.12 3.467l4.2 4.583 2.548-2.335c1.12-1.027 1.7-1.959 1.736-2.795.037-.837-.27-1.609-.918-2.316-.41-.449-.868-.746-1.371-.893-.491-.157-1.048-.113-1.67.131-.622.222-1.322.69-2.1 1.404l-2.424 2.221zM70.02 31.112c.614 1.013.964 2.054 1.051 3.124.079 1.056-.161 2.08-.72 3.074-.552.97-1.479 1.85-2.78 2.637-1.82 1.103-3.507 1.452-5.061 1.046-1.55-.427-2.818-1.454-3.804-3.083l-5.72-9.443 1.848-1.119 5.756 9.505c.722 1.19 1.596 1.923 2.623 2.199 1.041.267 2.205.011 3.492-.768.89-.539 1.512-1.131 1.87-1.778a3.473 3.473 0 00.423-2.08c-.089-.732-.357-1.468-.804-2.207l-5.745-9.484 1.827-1.107 5.745 9.484zm14.574-4.31c.36.959.434 1.863.222 2.71-.217.834-.692 1.594-1.426 2.28-.72.68-1.663 1.238-2.831 1.677-.6.225-1.188.411-1.764.56a13.52 13.52 0 01-1.576.308 7.332 7.332 0 01-1.351.02l-.725-1.932c.629.037 1.377.004 2.244-.099.882-.109 1.75-.323 2.604-.644.794-.297 1.421-.652 1.882-1.065.46-.412.752-.863.876-1.354.123-.49.087-.998-.11-1.522s-.475-.924-.835-1.2c-.36-.275-.872-.458-1.539-.55-.657-.112-1.537-.158-2.64-.137a14.954 14.954 0 01-2.124-.126 5.914 5.914 0 01-1.66-.53 4.158 4.158 0 01-1.267-.986c-.345-.418-.635-.941-.871-1.57-.32-.854-.376-1.662-.167-2.424.204-.777.626-1.474 1.267-2.09.655-.622 1.485-1.122 2.488-1.498a11.848 11.848 0 012.52-.663 11.185 11.185 0 012.244-.1l.02 1.967a12.589 12.589 0 00-2.047.076 8.682 8.682 0 00-2.116.512c-.674.253-1.199.561-1.575.924-.377.364-.61.767-.7 1.211-.095.43-.055.876.119 1.34.202.54.483.947.843 1.222s.847.46 1.463.553c.616.093 1.42.142 2.413.145 1.073-.01 2.008.067 2.804.23.805.142 1.476.429 2.014.86.552.424.986 1.056 1.3 1.895zm13.796-3.12c.2 1.005.126 1.908-.22 2.711-.35.787-.942 1.46-1.777 2.017-.82.555-1.842.953-3.066 1.196a17.18 17.18 0 01-1.831.266 13.57 13.57 0 01-1.605.05 7.334 7.334 0 01-1.337-.2l-.402-2.024c.615.14 1.358.228 2.23.267a11.41 11.41 0 002.674-.213c.832-.166 1.509-.414 2.03-.746.521-.332.883-.73 1.084-1.194.201-.465.248-.971.139-1.52-.11-.55-.32-.99-.63-1.32-.31-.329-.786-.593-1.43-.792-.63-.217-1.49-.405-2.583-.563a14.952 14.952 0 01-2.075-.469 5.915 5.915 0 01-1.552-.793 4.157 4.157 0 01-1.09-1.178c-.273-.468-.474-1.031-.605-1.69-.178-.895-.102-1.701.229-2.42.327-.733.856-1.352 1.588-1.856.748-.508 1.647-.866 2.699-1.075.925-.184 1.79-.266 2.593-.246.804.02 1.547.109 2.231.267l-.299 1.943a12.573 12.573 0 00-2.033-.257 8.679 8.679 0 00-2.17.162c-.706.14-1.275.36-1.705.657-.43.298-.726.658-.886 1.081-.164.408-.197.855-.1 1.342.112.565.323 1.012.633 1.342.31.33.762.591 1.355.783.593.192 1.378.37 2.357.535 1.06.165 1.97.392 2.73.681.77.271 1.387.663 1.847 1.175.477.509.802 1.203.977 2.081zm9.778 3.83l-6.18.382-.077-1.245 1.984-.58-.846-13.678-2.042-.354-.077-1.246 6.181-.382.077 1.246-1.983.603.845 13.678 2.041.33.077 1.246zm17.853 1.096l-2.506-.262-7.639-15.108-.096-.01c-.014.288-.031.608-.052.96-.005.353-.021.738-.048 1.153l-.082 1.246c-.029.432-.066.862-.111 1.292l-.995 9.524-1.981-.207 1.781-17.043 2.482.26 7.621 15.057.095.01c.004-.193.016-.457.035-.793.02-.352.044-.735.072-1.15l.089-1.319c.031-.447.066-.861.106-1.243l1.005-9.62 2.005.21-1.781 17.043zm13.708 3.827l-9.163-2.783 4.981-16.396 9.163 2.783-.552 1.814-7.095-2.156-1.556 5.121 6.682 2.03-.544 1.792-6.682-2.03-1.779 5.855 7.096 2.156-.551 1.814zm14.649 1.731c-.455.918-1.064 1.589-1.828 2.014-.757.411-1.636.583-2.638.515-.988-.06-2.041-.368-3.159-.921a17.121 17.121 0 01-1.614-.906 13.5 13.5 0 01-1.302-.94 7.317 7.317 0 01-.938-.973l.916-1.85c.402.486.938 1.01 1.605 1.572.682.57 1.432 1.057 2.249 1.462.76.376 1.448.591 2.064.646.615.055 1.144-.04 1.587-.285.443-.245.788-.619 1.037-1.12.248-.502.35-.979.305-1.43-.044-.45-.261-.95-.65-1.5-.367-.556-.935-1.23-1.704-2.021a15.047 15.047 0 01-1.358-1.637 5.894 5.894 0 01-.747-1.575 4.146 4.146 0 01-.146-1.598c.069-.537.253-1.107.551-1.71.405-.816.957-1.409 1.657-1.777.707-.382 1.504-.55 2.391-.503.902.054 1.834.318 2.794.794a11.87 11.87 0 012.206 1.387 11.08 11.08 0 011.605 1.571l-1.422 1.358a12.646 12.646 0 00-1.454-1.443 8.702 8.702 0 00-1.819-1.195c-.645-.32-1.229-.492-1.752-.52-.522-.026-.976.08-1.361.318-.379.223-.678.557-.898 1.001-.256.517-.361 1-.316 1.45.044.451.243.933.596 1.447.352.514.866 1.134 1.542 1.862.74.777 1.323 1.511 1.747 2.204.447.685.696 1.37.749 2.058.067.693-.098 1.442-.495 2.245zm11.765 7.974c-.597.833-1.306 1.397-2.128 1.694-.814.283-1.709.31-2.687.082-.965-.218-1.955-.691-2.97-1.418a17.23 17.23 0 01-1.446-1.154 13.623 13.623 0 01-1.134-1.137 7.338 7.338 0 01-.769-1.112l1.202-1.678c.319.544.763 1.147 1.331 1.81a11.384 11.384 0 001.984 1.805c.69.494 1.334.818 1.933.97.598.154 1.136.145 1.612-.025.477-.17.878-.483 1.204-.938.326-.456.503-.91.532-1.361.028-.452-.105-.98-.4-1.585-.272-.61-.724-1.366-1.355-2.27-.44-.65-.799-1.262-1.078-1.835a5.904 5.904 0 01-.483-1.675 4.163 4.163 0 01.114-1.6c.155-.52.428-1.052.819-1.598.531-.742 1.172-1.238 1.922-1.488.759-.263 1.573-.3 2.441-.11.882.198 1.758.609 2.629 1.233.768.55 1.419 1.124 1.954 1.724.535.6.979 1.203 1.331 1.81l-1.622 1.11a12.736 12.736 0 00-1.203-1.658 8.673 8.673 0 00-1.603-1.473c-.585-.419-1.133-.684-1.645-.794-.511-.11-.976-.08-1.395.093-.409.16-.758.44-1.047.844-.336.468-.517.928-.546 1.38-.028.452.09.96.355 1.524.265.564.673 1.26 1.222 2.086.605.886 1.062 1.705 1.369 2.457.331.748.466 1.465.408 2.151-.046.696-.33 1.408-.851 2.136z" fill="#fff"/></svg>